<svg width="500" height="105" viewBox="0 0 500 105" fill="none" xmlns="http://www.w3.org/2000/svg">
<path d="M123.001 84V24.9845H151.63C158.215 24.9845 163.265 26.3518 166.781 29.0863C170.353 31.8208 172.138 35.532 172.138 40.2197C172.138 43.6797 171.106 46.6375 169.041 49.093C167.032 51.5485 164.27 53.2226 160.754 54.1156V52.7762C164.939 53.5017 168.148 55.1201 170.381 57.6314C172.669 60.0869 173.813 63.2957 173.813 67.258C173.813 72.448 171.915 76.5498 168.12 79.5634C164.326 82.5211 159.135 84 152.55 84H123.001ZM137.817 72.6992H150.541C153.443 72.6992 155.592 72.169 156.987 71.1087C158.438 70.0483 159.163 68.4021 159.163 66.1698C159.163 63.8817 158.438 62.2354 156.987 61.2309C155.592 60.2264 153.443 59.7241 150.541 59.7241H137.817V72.6992ZM137.817 48.4233H148.783C151.741 48.4233 153.89 47.921 155.229 46.9165C156.624 45.912 157.322 44.3773 157.322 42.3125C157.322 40.2476 156.624 38.7408 155.229 37.7921C153.89 36.7876 151.741 36.2853 148.783 36.2853H137.817V48.4233ZM180.859 84V22.3895H195.759V84H180.859ZM220.628 84.9208C215.215 84.9208 211.197 83.4419 208.574 80.4842C206.007 77.4706 204.723 72.9224 204.723 66.8395V41.4754H219.624V66.9232C219.624 69.1554 220.07 70.8296 220.963 71.9458C221.912 73.0061 223.335 73.5363 225.232 73.5363C227.353 73.5363 229.083 72.7829 230.422 71.2761C231.817 69.7135 232.515 67.6766 232.515 65.1653V41.4754H247.415V84H232.933V76.3824H234.189C232.85 79.1169 231.036 81.2376 228.748 82.7444C226.46 84.1953 223.753 84.9208 220.628 84.9208ZM279.155 84.9208C271.454 84.9208 265.455 82.9397 261.157 78.9774C256.916 75.0151 254.795 69.574 254.795 62.654C254.795 58.3569 255.688 54.5341 257.474 51.1857C259.26 47.8373 261.771 45.2423 265.008 43.4007C268.245 41.5033 272.04 40.5545 276.393 40.5545C280.69 40.5545 284.261 41.5033 287.107 43.4007C290.009 45.2423 292.186 47.8094 293.637 51.102C295.088 54.3388 295.813 58.1057 295.813 62.4028V65.5838H267.268V58.5522H284.847L283.424 59.7241C283.424 56.5431 282.81 54.1993 281.583 52.6925C280.411 51.1299 278.736 50.3486 276.56 50.3486C274.049 50.3486 272.123 51.2973 270.784 53.1947C269.5 55.0364 268.859 57.8267 268.859 61.5657V63.0725C268.859 66.8116 269.78 69.5461 271.621 71.2761C273.463 73.0061 276.114 73.8711 279.574 73.8711C281.806 73.8711 283.899 73.62 285.852 73.1177C287.861 72.6154 289.758 71.8063 291.544 70.6901L295.395 80.4005C293.274 81.8514 290.819 82.9676 288.028 83.7489C285.238 84.5302 282.28 84.9208 279.155 84.9208ZM302.908 102.081V53.0273C302.908 51.1299 302.853 49.2046 302.741 47.2513C302.629 45.2981 302.462 43.3728 302.239 41.4754H316.637L317.558 49.0093H316.721C317.502 46.498 319.232 44.461 321.911 42.8984C324.589 41.3358 327.575 40.5545 330.867 40.5545C334.551 40.5545 337.788 41.4475 340.578 43.2333C343.368 44.9633 345.545 47.5025 347.107 50.8509C348.726 54.1435 349.535 58.1057 349.535 62.7377C349.535 67.3138 348.726 71.2761 347.107 74.6245C345.545 77.9729 343.368 80.54 340.578 82.3258C337.788 84.0558 334.551 84.9208 330.867 84.9208C327.631 84.9208 324.701 84.1953 322.078 82.7444C319.455 81.2376 317.725 79.2564 316.888 76.8009H317.809V102.081H302.908ZM326.096 73.8711C328.663 73.8711 330.7 73.0061 332.207 71.2761C333.769 69.4903 334.551 66.6441 334.551 62.7377C334.551 58.8312 333.769 56.013 332.207 54.283C330.7 52.4972 328.663 51.6043 326.096 51.6043C323.585 51.6043 321.548 52.4972 319.985 54.283C318.423 56.013 317.641 58.8312 317.641 62.7377C317.641 66.6441 318.423 69.4903 319.985 71.2761C321.548 73.0061 323.585 73.8711 326.096 73.8711ZM356.78 84V53.111C356.78 51.1578 356.724 49.2046 356.613 47.2513C356.501 45.2981 356.334 43.3728 356.111 41.4754H370.509L372.099 54.5341H369.839C370.397 51.3531 371.29 48.7302 372.518 46.6654C373.746 44.6005 375.28 43.0658 377.122 42.0613C378.963 41.0568 381.14 40.5545 383.651 40.5545C384.823 40.5545 385.688 40.6104 386.246 40.722C386.86 40.7778 387.502 40.9452 388.172 41.2242V54.283C386.776 53.6691 385.66 53.2785 384.823 53.111C383.986 52.9436 382.898 52.8599 381.558 52.8599C379.27 52.8599 377.401 53.2785 375.95 54.1156C374.499 54.8968 373.439 56.1246 372.769 57.7988C372.155 59.473 371.848 61.6215 371.848 64.2445V84H356.78ZM392.668 84V41.4754H407.568V84H392.668ZM392.333 35.4482V22.0547H407.987V35.4482H392.333ZM416.783 84V53.0273C416.783 51.1299 416.727 49.2046 416.616 47.2513C416.504 45.2981 416.337 43.3728 416.114 41.4754H430.512L431.349 48.8418H430.428C431.823 46.1631 433.804 44.1262 436.371 42.731C438.939 41.28 441.84 40.5545 445.077 40.5545C450.044 40.5545 453.755 42.0334 456.211 44.9912C458.722 47.8931 459.978 52.4414 459.978 58.6359V84H445.077V59.3056C445.077 56.571 444.603 54.6736 443.654 53.6133C442.705 52.4972 441.338 51.9391 439.552 51.9391C437.209 51.9391 435.311 52.7204 433.86 54.283C432.409 55.7898 431.684 57.7988 431.684 60.3101V84H416.783ZM490.703 84.9208C484.676 84.9208 480.128 83.4977 477.058 80.6516C474.045 77.7497 472.538 73.3688 472.538 67.5091V52.4414H464.586V41.4754H472.538V31.4302L487.438 27.9144V41.4754H497.818V52.4414H487.438V66.9232C487.438 69.3787 487.996 71.025 489.113 71.8621C490.229 72.6434 491.568 73.034 493.131 73.034C494.079 73.034 494.889 72.9782 495.558 72.8666C496.284 72.6992 497.037 72.4759 497.818 72.1969V83.6652C496.591 84.1674 495.363 84.5023 494.135 84.6697C492.963 84.8371 491.819 84.9208 490.703 84.9208Z" fill="white"/>
<rect x="0.365479" y="2.09296" width="100" height="100" rx="28.2521" fill="url(#paint0_linear_306_6998)"/>
<circle cx="49.8497" cy="51.5775" r="39.1444" fill="url(#paint1_linear_306_6998)" stroke="url(#paint2_linear_306_6998)" stroke-width="4.1855"/>
<path fill-rule="evenodd" clip-rule="evenodd" d="M27.9935 29.3728C28.5392 28.961 29.2487 28.858 29.849 28.9095L57.0806 28.961C58.4449 28.961 58.8815 29.1154 59.7547 29.4242C61.119 29.8875 61.9921 30.6082 62.9199 31.6891L62.9744 31.7406L64.5025 33.5422C64.557 33.5936 64.557 33.5936 64.6116 33.5936C64.6662 33.7995 64.7753 33.851 64.8845 33.954V34.0054C65.1028 34.3143 65.4302 34.7261 65.8122 35.1893C66.9037 36.4762 68.3225 38.2778 69.032 38.9984C69.6323 39.719 70.2326 40.4397 70.8329 41.1088C75.9627 46.7195 78.473 51.6095 72.7975 58.1982C78.6913 64.9928 75.6352 74.2581 66.5762 74.2581H41.0363C40.3269 74.2581 39.7812 74.0007 39.3446 73.5375L27.7207 60.8749C26.9021 59.9998 27.0112 58.7644 27.9389 58.0438C28.8667 57.3232 30.231 57.4261 31.0496 58.2497C33.5053 60.9263 35.9611 63.603 38.4169 66.2796C39.3446 67.3091 40.3269 68.3386 41.2546 69.4195C42.1823 70.449 42.8372 70.1917 44.147 70.1917H53.6426H53.6971H61.9921H62.3741H62.7016H63.0836H63.411H63.7385H64.1205H64.4479H64.8299H65.1573H65.4848H65.8668H66.1942H66.5762H68.4317C70.3417 70.1917 71.9243 68.6989 71.9243 66.8458V63.5515C71.9243 61.6984 70.3417 60.2057 68.4317 60.2057H53.6971C53.5334 60.2057 53.4243 60.2057 53.2606 60.2572H40.9818C40.2723 60.2572 39.672 59.9483 39.29 59.4851L27.7207 46.9254C26.9021 46.1018 27.0112 44.815 27.9389 44.0943C28.8667 43.3737 30.231 43.4767 31.0496 44.3002C31.9227 45.3297 32.8505 46.3077 33.7782 47.2857C36.234 49.9624 38.7443 52.5876 41.1455 55.3157C42.1278 56.4481 42.7826 56.1393 44.2015 56.1393C48.4582 56.1393 52.6603 56.1393 56.8623 56.1393H57.2443H57.5718H57.9538H60.4095H60.737H61.119C62.9744 56.1393 64.8299 56.1393 66.7399 56.1393C67.4494 56.1393 67.9405 56.1907 68.3771 56.1393H68.4317C70.3417 56.1393 71.9243 54.6465 71.9243 52.8449V49.4991C71.9243 47.8005 70.56 46.3592 68.7591 46.2048C68.1588 46.1018 67.4494 46.1533 66.9582 46.1533H65.3756H53.6971C53.6426 46.1533 53.588 46.1533 53.5334 46.2048C49.7133 46.1533 45.8933 46.1533 42.0732 46.1533C41.9641 46.1533 41.8549 46.1533 41.7458 46.1533C41.0363 46.2048 40.3815 45.9474 39.8903 45.4327L27.7207 32.2553C26.9566 31.3803 27.0658 30.0934 27.9935 29.3728ZM58.0084 33.1304C58.2266 33.1304 58.2812 33.1819 58.3904 33.1819C58.4449 33.2333 58.4995 33.2333 58.5541 33.2333C59.3727 33.5422 61.3373 36.0129 63.1382 38.3293C63.9022 39.3073 64.6116 40.2338 65.4848 41.1603C66.1942 41.9324 65.9213 41.9839 64.8845 41.9839C58.0629 41.9324 51.2414 41.9324 44.4198 41.9324C42.6735 41.9324 42.5098 42.1383 41.3092 40.7485C40.9272 40.3367 40.5452 39.9249 40.2177 39.5646C38.7989 38.0204 37.38 36.4247 35.9065 34.8805C35.6882 34.6231 34.5422 33.5936 34.5422 33.2848C34.4876 32.9245 35.7974 33.0274 36.0157 33.0274C38.144 33.0789 40.3269 33.0274 42.4006 33.0274C47.0939 33.0274 51.8417 32.976 56.5349 33.0789C56.7532 33.0789 57.8992 33.0789 58.0084 33.1304Z" fill="white"/>
<defs>
<linearGradient id="paint0_linear_306_6998" x1="50.3655" y1="2.09296" x2="50.3655" y2="102.093" gradientUnits="userSpaceOnUse">
<stop stop-color="#41A1F5"/>
<stop offset="1" stop-color="#336AE7"/>
</linearGradient>
<linearGradient id="paint1_linear_306_6998" x1="49.8497" y1="10.3403" x2="49.8497" y2="92.8146" gradientUnits="userSpaceOnUse">
<stop stop-color="#41A1F5"/>
<stop offset="1" stop-color="#336AE7"/>
</linearGradient>
<linearGradient id="paint2_linear_306_6998" x1="39.5404" y1="7.24755" x2="65.2185" y2="89.454" gradientUnits="userSpaceOnUse">
<stop stop-color="#A6CDFC"/>
<stop offset="1" stop-color="#7DB3FF"/>
</linearGradient>
</defs>
</svg>
