<svg xmlns="http://www.w3.org/2000/svg" width="550" height="155" style="fill:none" viewBox="0 0 550 155"><path d="M0 0h550v155H0z" style="fill:#0d1117;fill-opacity:1;stroke-width:1.03087795"/><path d="M148.001 109V49.984h28.629c6.585 0 11.635 1.368 15.151 4.102 3.572 2.735 5.357 6.446 5.357 11.134 0 3.46-1.032 6.417-3.097 8.873-2.009 2.455-4.771 4.13-8.287 5.023v-1.34c4.185.726 7.394 2.344 9.627 4.855 2.288 2.456 3.432 5.665 3.432 9.627 0 5.19-1.898 9.292-5.693 12.305-3.794 2.958-8.985 4.437-15.57 4.437zm14.816-11.3h12.724c2.902 0 5.051-.531 6.446-1.591 1.451-1.06 2.176-2.707 2.176-4.94 0-2.287-.725-3.934-2.176-4.938-1.395-1.005-3.544-1.507-6.446-1.507h-12.724zm0-24.277h10.966c2.958 0 5.107-.502 6.446-1.506 1.395-1.005 2.093-2.54 2.093-4.604 0-2.065-.698-3.572-2.093-4.52-1.339-1.005-3.488-1.508-6.446-1.508h-10.966ZM205.859 109V47.39h14.9V109Zm39.769.92c-5.413 0-9.431-1.478-12.054-4.436-2.567-3.013-3.851-7.562-3.851-13.644V66.475h14.901v25.448c0 2.232.446 3.907 1.339 5.023.949 1.06 2.372 1.59 4.269 1.59 2.121 0 3.851-.753 5.19-2.26 1.395-1.562 2.093-3.6 2.093-6.11v-23.69h14.9V109h-14.482v-7.618h1.256c-1.339 2.735-3.153 4.856-5.441 6.362-2.288 1.451-4.995 2.177-8.12 2.177zm58.527 0c-7.701 0-13.7-1.98-17.998-5.943-4.241-3.962-6.362-9.403-6.362-16.323 0-4.297.893-8.12 2.679-11.468 1.786-3.349 4.297-5.944 7.534-7.785 3.237-1.898 7.032-2.846 11.385-2.846 4.297 0 7.868.948 10.714 2.846 2.902 1.841 5.079 4.408 6.53 7.701 1.451 3.237 2.176 7.004 2.176 11.3v3.182h-28.545v-7.032h17.579l-1.423 1.172c0-3.18-.614-5.525-1.841-7.032-1.172-1.562-2.847-2.343-5.023-2.343-2.511 0-4.437.948-5.776 2.846-1.284 1.841-1.925 4.632-1.925 8.37v1.507c0 3.74.921 6.474 2.762 8.204 1.842 1.73 4.493 2.595 7.953 2.595 2.232 0 4.325-.251 6.278-.753a19.694 19.694 0 0 0 5.692-2.428l3.851 9.71c-2.121 1.451-4.576 2.568-7.367 3.349-2.79.781-5.748 1.172-8.873 1.172zm23.753 17.161V78.027a100.887 100.887 0 0 0-.669-11.552h14.398l.921 7.534h-.837c.781-2.511 2.511-4.548 5.19-6.11 2.678-1.563 5.664-2.344 8.956-2.344 3.684 0 6.921.892 9.711 2.678 2.79 1.73 4.967 4.27 6.529 7.618 1.619 3.292 2.428 7.255 2.428 11.887 0 4.576-.809 8.538-2.428 11.886-1.562 3.349-3.739 5.916-6.529 7.702-2.79 1.73-6.027 2.595-9.711 2.595-3.236 0-6.166-.726-8.789-2.177-2.623-1.506-4.353-3.488-5.19-5.943h.921v25.28zm23.188-28.21c2.567 0 4.604-.865 6.111-2.595 1.562-1.786 2.344-4.632 2.344-8.538 0-3.907-.782-6.725-2.344-8.455-1.507-1.786-3.544-2.679-6.111-2.679-2.511 0-4.548.893-6.111 2.679-1.562 1.73-2.344 4.548-2.344 8.455 0 3.906.782 6.752 2.344 8.538 1.563 1.73 3.6 2.595 6.111 2.595zM381.78 109V78.111c0-1.953-.056-3.906-.167-5.86a97.097 97.097 0 0 0-.502-5.776h14.398l1.59 13.06h-2.26c.558-3.182 1.451-5.805 2.679-7.87 1.228-2.065 2.762-3.6 4.604-4.604 1.841-1.004 4.018-1.507 6.529-1.507 1.172 0 2.037.056 2.595.168a6.569 6.569 0 0 1 1.926.502v13.059c-1.396-.614-2.512-1.004-3.349-1.172-.837-.167-1.925-.251-3.265-.251-2.288 0-4.157.419-5.608 1.256-1.451.78-2.511 2.009-3.181 3.683-.614 1.674-.921 3.823-.921 6.446V109Zm35.888 0V66.475h14.9V109Zm-.335-48.552V47.055h15.654v13.393ZM441.783 109V78.027c0-1.897-.056-3.822-.167-5.776a97.097 97.097 0 0 0-.502-5.776h14.398l.837 7.367h-.921c1.395-2.679 3.376-4.716 5.943-6.111 2.568-1.451 5.469-2.176 8.706-2.176 4.967 0 8.678 1.478 11.134 4.436 2.511 2.902 3.767 7.45 3.767 13.645V109h-14.901V84.306c0-2.735-.474-4.632-1.423-5.693-.949-1.116-2.316-1.674-4.102-1.674-2.343 0-4.241.781-5.692 2.344-1.451 1.507-2.176 3.516-2.176 6.027V109Zm73.92.92c-6.027 0-10.575-1.422-13.645-4.268-3.013-2.902-4.52-7.283-4.52-13.143V77.441h-7.952V66.475h7.952V56.43l14.9-3.516v13.561h10.38v10.966h-10.38v14.482c0 2.456.558 4.102 1.675 4.94 1.116.78 2.455 1.171 4.018 1.171.948 0 1.758-.056 2.427-.167.726-.168 1.479-.391 2.26-.67v11.468a15.084 15.084 0 0 1-3.683 1.005 24.261 24.261 0 0 1-3.432.25z" style="fill:#fff"/><rect width="100" height="100" x="25.365" y="27.093" rx="28.252" style="fill:url(#a)"/><circle cx="74.85" cy="76.577" r="39.144" style="fill:url(#b);stroke:url(#paint2_linear_306_6998);stroke-width:4.18550014"/><path d="M52.993 54.373c.546-.412 1.256-.515 1.856-.463l27.232.051c1.364 0 1.8.154 2.674.463 1.364.463 2.237 1.184 3.165 2.265l.054.052 1.528 1.801c.055.052.055.052.11.052.054.205.163.257.273.36v.051c.218.31.545.721.927 1.184 1.092 1.287 2.51 3.089 3.22 3.81.6.72 1.2 1.44 1.8 2.11 5.13 5.61 7.641 10.5 1.966 17.09 5.893 6.794 2.837 16.06-6.222 16.06h-25.54c-.71 0-1.255-.258-1.691-.722L52.72 85.875c-.819-.875-.71-2.11.218-2.831.928-.72 2.292-.618 3.11.206l7.368 8.03c.928 1.03 1.91 2.059 2.838 3.14.927 1.029 1.582.772 2.892.772H93.432c1.91 0 3.492-1.493 3.492-3.346V88.55c0-1.853-1.582-3.345-3.492-3.345H78.697c-.164 0-.273 0-.436.051H65.98a2.17 2.17 0 0 1-1.691-.772l-11.57-12.56c-.818-.823-.709-2.11.219-2.83.928-.721 2.292-.618 3.11.205.874 1.03 1.802 2.008 2.73 2.986 2.455 2.676 4.965 5.302 7.367 8.03.982 1.132 1.637.823 3.055.823H91.74c.71 0 1.202.052 1.638 0h.055c1.91 0 3.492-1.493 3.492-3.294v-3.346c0-1.698-1.364-3.14-3.165-3.294-.6-.103-1.31-.052-1.8-.052H78.696c-.054 0-.109 0-.164.052-3.82-.052-7.64-.052-11.46-.052h-.327a2.29 2.29 0 0 1-1.856-.72L52.72 57.255c-.763-.875-.654-2.162.274-2.882zm30.015 3.757c.219 0 .273.052.382.052.055.051.11.051.164.051.819.31 2.783 2.78 4.584 5.096.764.978 1.474 1.905 2.347 2.831.71.772.436.824-.6.824-6.822-.052-13.644-.052-20.465-.052-1.746 0-1.91.206-3.11-1.184-.383-.411-.765-.823-1.092-1.183-1.42-1.545-2.838-3.14-4.311-4.684-.219-.258-1.365-1.287-1.365-1.596-.054-.36 1.255-.258 1.474-.258 2.128.052 4.31 0 6.385 0 4.693 0 9.44-.051 14.134.052.218 0 1.364 0 1.473.051z" style="clip-rule:evenodd;fill:#fff;fill-rule:evenodd"/><defs><linearGradient id="a" x1="50.366" x2="50.366" y1="2.093" y2="102.093" gradientTransform="translate(25 25)" gradientUnits="userSpaceOnUse"><stop stop-color="#41A1F5"/><stop offset="1" stop-color="#336AE7"/></linearGradient><linearGradient id="b" x1="49.85" x2="49.85" y1="10.34" y2="92.815" gradientTransform="translate(25 25)" gradientUnits="userSpaceOnUse"><stop stop-color="#41A1F5"/><stop offset="1" stop-color="#336AE7"/></linearGradient></defs></svg>