<?xml version="1.0" standalone="no"?>
<!DOCTYPE svg PUBLIC "-//W3C//DTD SVG 20010904//EN"
 "http://www.w3.org/TR/2001/REC-SVG-20010904/DTD/svg10.dtd">
<svg width="100" height="100" viewBox="0 0 100 100" fill="none" xmlns="http://www.w3.org/2000/svg">
<g clip-path="url(#clip0_4_109)">
<path d="M71.748 0H28.252C12.6489 0 0 12.6489 0 28.252V71.748C0 87.3512 12.6489 100 28.252 100H71.748C87.3512 100 100 87.3512 100 71.748V28.252C100 12.6489 87.3512 0 71.748 0Z" fill="#0088CC"/>
<path fill-rule="evenodd" clip-rule="evenodd" d="M27.628 27.2799C28.174 26.8679 28.884 26.7649 29.484 26.8169L56.716 26.8679C58.08 26.8679 58.516 27.0219 59.39 27.3309C60.754 27.7939 61.627 28.5149 62.555 29.5959L62.609 29.6479L64.137 31.4489C64.192 31.5009 64.192 31.5009 64.247 31.5009C64.301 31.7059 64.41 31.7579 64.52 31.8609V31.9119C64.738 32.2219 65.065 32.6329 65.447 33.0959C66.539 34.3829 67.957 36.1849 68.667 36.9059C69.267 37.6259 69.867 38.3459 70.467 39.0159C75.597 44.6259 78.108 49.5159 72.433 56.1059C78.326 62.8999 75.27 72.1659 66.211 72.1659H40.671C39.961 72.1659 39.416 71.9079 38.98 71.4439L27.355 58.7819C26.536 57.9069 26.645 56.6719 27.573 55.9509C28.501 55.2309 29.865 55.3329 30.683 56.1569L38.051 64.1869C38.979 65.2169 39.961 66.2459 40.889 67.3269C41.816 68.3559 42.471 68.0989 43.781 68.0989H68.067C69.977 68.0989 71.559 66.6059 71.559 64.7529V61.4569C71.559 59.6039 69.977 58.1119 68.067 58.1119H53.332C53.168 58.1119 53.059 58.1119 52.896 58.1629H40.615C40.2936 58.1675 39.9751 58.1006 39.6827 57.9671C39.3902 57.8336 39.1311 57.6368 38.924 57.3909L27.354 44.8309C26.536 44.0079 26.645 42.7209 27.573 42.0009C28.501 41.2799 29.865 41.3829 30.683 42.2059C31.557 43.2359 32.485 44.2139 33.413 45.1919C35.868 47.8679 38.378 50.4939 40.78 53.2219C41.762 54.3539 42.417 54.0449 43.835 54.0449H66.375C67.085 54.0449 67.577 54.0969 68.013 54.0449H68.068C69.978 54.0449 71.56 52.5519 71.56 50.7509V47.4049C71.56 45.7069 70.196 44.2649 68.395 44.1109C67.795 44.0079 67.085 44.0589 66.595 44.0589H53.331C53.277 44.0589 53.222 44.0589 53.167 44.1109C49.347 44.0589 45.527 44.0589 41.707 44.0589H41.38C41.0364 44.0863 40.691 44.0358 40.3697 43.9111C40.0483 43.7864 39.7592 43.5908 39.524 43.3389L27.355 30.1619C26.592 29.2869 26.7 27.9999 27.628 27.2799ZM57.643 31.0369C57.862 31.0369 57.916 31.0889 58.025 31.0889C58.08 31.1399 58.135 31.1399 58.189 31.1399C59.008 31.4499 60.972 33.9199 62.773 36.2359C63.537 37.2139 64.247 38.1409 65.12 39.0669C65.83 39.8389 65.556 39.8909 64.52 39.8909C57.698 39.8389 50.876 39.8389 44.055 39.8389C42.309 39.8389 42.145 40.0449 40.945 38.6549C40.562 38.2439 40.18 37.8319 39.853 37.4719C38.433 35.9269 37.015 34.3319 35.542 32.7879C35.323 32.5299 34.177 31.5009 34.177 31.1919C34.123 30.8319 35.432 30.9339 35.651 30.9339C37.779 30.9859 39.961 30.9339 42.036 30.9339C46.729 30.9339 51.476 30.8829 56.17 30.9859C56.388 30.9859 57.534 30.9859 57.643 31.0369Z" fill="white"/>
</g>
<defs>
<clipPath id="clip0_4_109">
<rect width="100" height="100" fill="white"/>
</clipPath>
</defs>
</svg>
